<?xml version="1.0" encoding="UTF-8" standalone="no"?>
<!DOCTYPE svg PUBLIC "-//W3C//DTD SVG 1.1//EN"
 "http://www.w3.org/Graphics/SVG/1.1/DTD/svg11.dtd">
<!-- Generated by graphviz version 2.40.1 (20161225.0304)
 -->
<!-- Title: dependencies Pages: 1 -->
<svg width="1098pt" height="211pt"
 viewBox="0.00 0.00 1098.00 211.00" xmlns="http://www.w3.org/2000/svg" xmlns:xlink="http://www.w3.org/1999/xlink">
<g id="graph0" class="graph" transform="scale(1 1) rotate(0) translate(4 207)">
<title>dependencies</title>
<polygon fill="#ffffff" stroke="transparent" points="-4,4 -4,-207 1094,-207 1094,4 -4,4"/>
<text text-anchor="start" x="524.0091" y="-42.4" font-family="sans-serif" font-weight="bold" font-size="14.00" fill="#000000">Legend</text>
<polygon fill="#ffffb3" stroke="transparent" points="311,-10 311,-30 331,-30 331,-10 311,-10"/>
<text text-anchor="start" x="334.629" y="-15.4" font-family="sans-serif" font-size="14.00" fill="#000000"> &#160;Declarations</text>
<polygon fill="#8dd3c7" stroke="transparent" points="424,-10 424,-30 444,-30 444,-10 424,-10"/>
<text text-anchor="start" x="447.7251" y="-15.4" font-family="sans-serif" font-size="14.00" fill="#000000"> &#160;Module</text>
<polygon fill="#80b1d3" stroke="transparent" points="510,-10 510,-30 530,-30 530,-10 510,-10"/>
<text text-anchor="start" x="533.7812" y="-15.4" font-family="sans-serif" font-size="14.00" fill="#000000"> &#160;Bootstrap</text>
<polygon fill="#fdb462" stroke="transparent" points="607,-10 607,-30 627,-30 627,-10 607,-10"/>
<text text-anchor="start" x="630.6732" y="-15.4" font-family="sans-serif" font-size="14.00" fill="#000000"> &#160;Providers</text>
<polygon fill="#fb8072" stroke="transparent" points="703,-10 703,-30 723,-30 723,-10 703,-10"/>
<text text-anchor="start" x="726.7258" y="-15.4" font-family="sans-serif" font-size="14.00" fill="#000000"> &#160;Exports</text>
<g id="clust1" class="cluster">
<title>cluster_AuthModule</title>
<polygon fill="none" stroke="#000000" stroke-dasharray="1,5" points="8,-70 8,-195 1082,-195 1082,-70 8,-70"/>
</g>
<g id="clust2" class="cluster">
<title>cluster_AuthModule_declarations</title>
<polygon fill="none" stroke="#000000" points="948,-78 948,-130 1074,-130 1074,-78 948,-78"/>
</g>
<g id="clust4" class="cluster">
<title>cluster_AuthModule_imports</title>
<polygon fill="none" stroke="#000000" points="285,-78 285,-130 940,-130 940,-78 285,-78"/>
</g>
<g id="clust7" class="cluster">
<title>cluster_AuthModule_providers</title>
<polygon fill="none" stroke="#000000" points="16,-78 16,-130 277,-130 277,-78 16,-78"/>
</g>
<!-- AuthComponent -->
<g id="node1" class="node">
<title>AuthComponent</title>
<polygon fill="#ffffb3" stroke="#000000" points="1065.8301,-122 956.1699,-122 956.1699,-86 1065.8301,-86 1065.8301,-122"/>
<text text-anchor="middle" x="1011" y="-99.8" font-family="Times,serif" font-size="14.00" fill="#000000">AuthComponent</text>
</g>
<!-- AuthModule -->
<g id="node2" class="node">
<title>AuthModule</title>
<polygon fill="#8dd3c7" stroke="#000000" points="624.5482,-187 621.5482,-191 600.5482,-191 597.5482,-187 537.4518,-187 537.4518,-151 624.5482,-151 624.5482,-187"/>
<text text-anchor="middle" x="581" y="-164.8" font-family="Times,serif" font-size="14.00" fill="#000000">AuthModule</text>
</g>
<!-- AuthComponent&#45;&gt;AuthModule -->
<g id="edge1" class="edge">
<title>AuthComponent&#45;&gt;AuthModule</title>
<path fill="none" stroke="#000000" d="M1011,-122.2921C1011,-144.2057 1011,-178 1011,-178 1011,-178 634.5971,-178 634.5971,-178"/>
<polygon fill="#000000" stroke="#000000" points="634.5971,-174.5001 624.5971,-178 634.597,-181.5001 634.5971,-174.5001"/>
</g>
<!-- CommonModule -->
<g id="node3" class="node">
<title>CommonModule</title>
<polygon fill="#8dd3c7" stroke="#000000" points="931.6681,-122 928.6681,-126 907.6681,-126 904.6681,-122 820.3319,-122 820.3319,-86 931.6681,-86 931.6681,-122"/>
<text text-anchor="middle" x="876" y="-99.8" font-family="Times,serif" font-size="14.00" fill="#000000">CommonModule</text>
</g>
<!-- CommonModule&#45;&gt;AuthModule -->
<g id="edge2" class="edge">
<title>CommonModule&#45;&gt;AuthModule</title>
<path fill="none" stroke="#000000" d="M876,-122.1061C876,-141.3391 876,-169 876,-169 876,-169 634.8459,-169 634.8459,-169"/>
<polygon fill="#000000" stroke="#000000" points="634.846,-165.5001 624.8459,-169 634.8459,-172.5001 634.846,-165.5001"/>
</g>
<!-- FormsModule -->
<g id="node4" class="node">
<title>FormsModule</title>
<polygon fill="#8dd3c7" stroke="#000000" points="802.8288,-122 799.8288,-126 778.8288,-126 775.8288,-122 707.1712,-122 707.1712,-86 802.8288,-86 802.8288,-122"/>
<text text-anchor="middle" x="755" y="-99.8" font-family="Times,serif" font-size="14.00" fill="#000000">FormsModule</text>
</g>
<!-- FormsModule&#45;&gt;AuthModule -->
<g id="edge3" class="edge">
<title>FormsModule&#45;&gt;AuthModule</title>
<path fill="none" stroke="#000000" d="M755,-122.027C755,-138.3976 755,-160 755,-160 755,-160 634.9075,-160 634.9075,-160"/>
<polygon fill="#000000" stroke="#000000" points="634.9076,-156.5001 624.9075,-160 634.9075,-163.5001 634.9076,-156.5001"/>
</g>
<!-- HttpModule -->
<g id="node5" class="node">
<title>HttpModule</title>
<polygon fill="#8dd3c7" stroke="#000000" points="689.4387,-122 686.4387,-126 665.4387,-126 662.4387,-122 604.5613,-122 604.5613,-86 689.4387,-86 689.4387,-122"/>
<text text-anchor="middle" x="647" y="-99.8" font-family="Times,serif" font-size="14.00" fill="#000000">HttpModule</text>
</g>
<!-- HttpModule&#45;&gt;AuthModule -->
<g id="edge4" class="edge">
<title>HttpModule&#45;&gt;AuthModule</title>
<path fill="none" stroke="#000000" d="M614.7774,-122.1061C614.7774,-122.1061 614.7774,-140.991 614.7774,-140.991"/>
<polygon fill="#000000" stroke="#000000" points="611.2774,-140.9909 614.7774,-150.991 618.2774,-140.991 611.2774,-140.9909"/>
</g>
<!-- Ng2PaginationModule -->
<g id="node6" class="node">
<title>Ng2PaginationModule</title>
<polygon fill="#8dd3c7" stroke="#000000" points="586.5407,-122 583.5407,-126 562.5407,-126 559.5407,-122 443.4593,-122 443.4593,-86 586.5407,-86 586.5407,-122"/>
<text text-anchor="middle" x="515" y="-99.8" font-family="Times,serif" font-size="14.00" fill="#000000">Ng2PaginationModule</text>
</g>
<!-- Ng2PaginationModule&#45;&gt;AuthModule -->
<g id="edge5" class="edge">
<title>Ng2PaginationModule&#45;&gt;AuthModule</title>
<path fill="none" stroke="#000000" d="M561.9983,-122.1061C561.9983,-122.1061 561.9983,-140.991 561.9983,-140.991"/>
<polygon fill="#000000" stroke="#000000" points="558.4983,-140.9909 561.9983,-150.991 565.4983,-140.991 558.4983,-140.9909"/>
</g>
<!-- AuthRoutingModule -->
<g id="node7" class="node">
<title>AuthRoutingModule</title>
<polygon fill="#8dd3c7" stroke="#000000" points="425.1652,-122 422.1652,-126 401.1652,-126 398.1652,-122 292.8348,-122 292.8348,-86 425.1652,-86 425.1652,-122"/>
<text text-anchor="middle" x="359" y="-99.8" font-family="Times,serif" font-size="14.00" fill="#000000">AuthRoutingModule</text>
</g>
<!-- AuthRoutingModule&#45;&gt;AuthModule -->
<g id="edge6" class="edge">
<title>AuthRoutingModule&#45;&gt;AuthModule</title>
<path fill="none" stroke="#000000" d="M359,-122.027C359,-138.3976 359,-160 359,-160 359,-160 527.4048,-160 527.4048,-160"/>
<polygon fill="#000000" stroke="#000000" points="527.4049,-163.5001 537.4048,-160 527.4048,-156.5001 527.4049,-163.5001"/>
</g>
<!-- AuthService -->
<g id="node8" class="node">
<title>AuthService</title>
<ellipse fill="#fdb462" stroke="#000000" cx="210" cy="-104" rx="59.1083" ry="18"/>
<text text-anchor="middle" x="210" y="-99.8" font-family="Times,serif" font-size="14.00" fill="#000000">AuthService</text>
</g>
<!-- AuthService&#45;&gt;AuthModule -->
<g id="edge7" class="edge">
<title>AuthService&#45;&gt;AuthModule</title>
<path fill="none" stroke="#000000" d="M210,-122.1061C210,-141.3391 210,-169 210,-169 210,-169 527.3506,-169 527.3506,-169"/>
<polygon fill="#000000" stroke="#000000" points="527.3507,-172.5001 537.3506,-169 527.3506,-165.5001 527.3507,-172.5001"/>
</g>
<!-- AuthGuard -->
<g id="node9" class="node">
<title>AuthGuard</title>
<ellipse fill="#fdb462" stroke="#000000" cx="78" cy="-104" rx="54.4566" ry="18"/>
<text text-anchor="middle" x="78" y="-99.8" font-family="Times,serif" font-size="14.00" fill="#000000">AuthGuard</text>
</g>
<!-- AuthGuard&#45;&gt;AuthModule -->
<g id="edge8" class="edge">
<title>AuthGuard&#45;&gt;AuthModule</title>
<path fill="none" stroke="#000000" d="M78,-122.2921C78,-144.2057 78,-178 78,-178 78,-178 527.242,-178 527.242,-178"/>
<polygon fill="#000000" stroke="#000000" points="527.242,-181.5001 537.242,-178 527.2419,-174.5001 527.242,-181.5001"/>
</g>
</g>
</svg>
