<?xml version="1.0" encoding="UTF-8" standalone="no"?>
<!DOCTYPE svg PUBLIC "-//W3C//DTD SVG 1.1//EN"
 "http://www.w3.org/Graphics/SVG/1.1/DTD/svg11.dtd">
<!-- Generated by graphviz version 2.40.1 (20161225.0304)
 -->
<!-- Title: dependencies Pages: 1 -->
<svg width="2294pt" height="284pt"
 viewBox="0.00 0.00 2294.00 284.00" xmlns="http://www.w3.org/2000/svg" xmlns:xlink="http://www.w3.org/1999/xlink">
<g id="graph0" class="graph" transform="scale(1 1) rotate(0) translate(4 280)">
<title>dependencies</title>
<polygon fill="#ffffff" stroke="transparent" points="-4,4 -4,-280 2290,-280 2290,4 -4,4"/>
<text text-anchor="start" x="1122.0091" y="-42.4" font-family="sans-serif" font-weight="bold" font-size="14.00" fill="#000000">Legend</text>
<polygon fill="#ffffb3" stroke="transparent" points="909,-10 909,-30 929,-30 929,-10 909,-10"/>
<text text-anchor="start" x="932.629" y="-15.4" font-family="sans-serif" font-size="14.00" fill="#000000"> &#160;Declarations</text>
<polygon fill="#8dd3c7" stroke="transparent" points="1022,-10 1022,-30 1042,-30 1042,-10 1022,-10"/>
<text text-anchor="start" x="1045.7251" y="-15.4" font-family="sans-serif" font-size="14.00" fill="#000000"> &#160;Module</text>
<polygon fill="#80b1d3" stroke="transparent" points="1108,-10 1108,-30 1128,-30 1128,-10 1108,-10"/>
<text text-anchor="start" x="1131.7812" y="-15.4" font-family="sans-serif" font-size="14.00" fill="#000000"> &#160;Bootstrap</text>
<polygon fill="#fdb462" stroke="transparent" points="1205,-10 1205,-30 1225,-30 1225,-10 1205,-10"/>
<text text-anchor="start" x="1228.6732" y="-15.4" font-family="sans-serif" font-size="14.00" fill="#000000"> &#160;Providers</text>
<polygon fill="#fb8072" stroke="transparent" points="1301,-10 1301,-30 1321,-30 1321,-10 1301,-10"/>
<text text-anchor="start" x="1324.7258" y="-15.4" font-family="sans-serif" font-size="14.00" fill="#000000"> &#160;Exports</text>
<g id="clust1" class="cluster">
<title>cluster_AppModule</title>
<polygon fill="none" stroke="#000000" stroke-dasharray="1,5" points="8,-70 8,-268 2278,-268 2278,-70 8,-70"/>
</g>
<g id="clust2" class="cluster">
<title>cluster_AppModule_declarations</title>
<polygon fill="none" stroke="#000000" points="1728,-78 1728,-130 2270,-130 2270,-78 1728,-78"/>
</g>
<g id="clust7" class="cluster">
<title>cluster_AppModule_imports</title>
<polygon fill="none" stroke="#000000" points="967,-78 967,-130 1720,-130 1720,-78 967,-78"/>
</g>
<g id="clust9" class="cluster">
<title>cluster_AppModule_bootstrap</title>
<polygon fill="none" stroke="#000000" points="1307,-208 1307,-260 1431,-260 1431,-208 1307,-208"/>
</g>
<g id="clust10" class="cluster">
<title>cluster_AppModule_providers</title>
<polygon fill="none" stroke="#000000" points="16,-78 16,-130 959,-130 959,-78 16,-78"/>
</g>
<!-- AppComponent -->
<g id="node1" class="node">
<title>AppComponent</title>
<polygon fill="#ffffb3" stroke="#000000" points="2261.9399,-122 2156.0601,-122 2156.0601,-86 2261.9399,-86 2261.9399,-122"/>
<text text-anchor="middle" x="2209" y="-99.8" font-family="Times,serif" font-size="14.00" fill="#000000">AppComponent</text>
</g>
<!-- AppModule -->
<g id="node5" class="node">
<title>AppModule</title>
<polygon fill="#8dd3c7" stroke="#000000" points="1410.6571,-187 1407.6571,-191 1386.6571,-191 1383.6571,-187 1327.3429,-187 1327.3429,-151 1410.6571,-151 1410.6571,-187"/>
<text text-anchor="middle" x="1369" y="-164.8" font-family="Times,serif" font-size="14.00" fill="#000000">AppModule</text>
</g>
<!-- AppComponent&#45;&gt;AppModule -->
<g id="edge1" class="edge">
<title>AppComponent&#45;&gt;AppModule</title>
<path fill="none" stroke="#000000" d="M2209,-122.0908C2209,-145.1328 2209,-182 2209,-182 2209,-182 1420.9431,-182 1420.9431,-182"/>
<polygon fill="#000000" stroke="#000000" points="1420.9432,-178.5001 1410.9431,-182 1420.9431,-185.5001 1420.9432,-178.5001"/>
</g>
<!-- HomeComponent -->
<g id="node2" class="node">
<title>HomeComponent</title>
<polygon fill="#ffffb3" stroke="#000000" points="2138.5451,-122 2023.4549,-122 2023.4549,-86 2138.5451,-86 2138.5451,-122"/>
<text text-anchor="middle" x="2081" y="-99.8" font-family="Times,serif" font-size="14.00" fill="#000000">HomeComponent</text>
</g>
<!-- HomeComponent&#45;&gt;AppModule -->
<g id="edge2" class="edge">
<title>HomeComponent&#45;&gt;AppModule</title>
<path fill="none" stroke="#000000" d="M2081,-122.0449C2081,-143.6623 2081,-177 2081,-177 2081,-177 1420.8807,-177 1420.8807,-177"/>
<polygon fill="#000000" stroke="#000000" points="1420.8807,-173.5001 1410.8807,-177 1420.8807,-180.5001 1420.8807,-173.5001"/>
</g>
<!-- NewsComponent -->
<g id="node3" class="node">
<title>NewsComponent</title>
<polygon fill="#ffffb3" stroke="#000000" points="2005.705,-122 1892.295,-122 1892.295,-86 2005.705,-86 2005.705,-122"/>
<text text-anchor="middle" x="1949" y="-99.8" font-family="Times,serif" font-size="14.00" fill="#000000">NewsComponent</text>
</g>
<!-- NewsComponent&#45;&gt;AppModule -->
<g id="edge3" class="edge">
<title>NewsComponent&#45;&gt;AppModule</title>
<path fill="none" stroke="#000000" d="M1949,-122.2228C1949,-142.3652 1949,-172 1949,-172 1949,-172 1420.7122,-172 1420.7122,-172"/>
<polygon fill="#000000" stroke="#000000" points="1420.7122,-168.5001 1410.7122,-172 1420.7121,-175.5001 1420.7122,-168.5001"/>
</g>
<!-- HomeEditComponent -->
<g id="node4" class="node">
<title>HomeEditComponent</title>
<polygon fill="#ffffb3" stroke="#000000" points="1874.3781,-122 1735.6219,-122 1735.6219,-86 1874.3781,-86 1874.3781,-122"/>
<text text-anchor="middle" x="1805" y="-99.8" font-family="Times,serif" font-size="14.00" fill="#000000">HomeEditComponent</text>
</g>
<!-- HomeEditComponent&#45;&gt;AppModule -->
<g id="edge4" class="edge">
<title>HomeEditComponent&#45;&gt;AppModule</title>
<path fill="none" stroke="#000000" d="M1805,-122.2222C1805,-140.8285 1805,-167 1805,-167 1805,-167 1420.8055,-167 1420.8055,-167"/>
<polygon fill="#000000" stroke="#000000" points="1420.8055,-163.5001 1410.8055,-167 1420.8055,-170.5001 1420.8055,-163.5001"/>
</g>
<!-- AppComponent  -->
<g id="node12" class="node">
<title>AppComponent </title>
<polygon fill="#80b1d3" stroke="#000000" points="1423.439,-252 1314.561,-252 1314.561,-216 1423.439,-216 1423.439,-252"/>
<text text-anchor="middle" x="1369" y="-229.8" font-family="Times,serif" font-size="14.00" fill="#000000">AppComponent </text>
</g>
<!-- AppModule&#45;&gt;AppComponent  -->
<g id="edge11" class="edge">
<title>AppModule&#45;&gt;AppComponent </title>
<path fill="none" stroke="#000000" stroke-dasharray="1,5" d="M1369,-187.1061C1369,-187.1061 1369,-205.991 1369,-205.991"/>
<polygon fill="#000000" stroke="#000000" points="1365.5001,-205.9909 1369,-215.991 1372.5001,-205.991 1365.5001,-205.9909"/>
</g>
<!-- BrowserModule -->
<g id="node6" class="node">
<title>BrowserModule</title>
<polygon fill="#8dd3c7" stroke="#000000" points="1712.4734,-122 1709.4734,-126 1688.4734,-126 1685.4734,-122 1605.5266,-122 1605.5266,-86 1712.4734,-86 1712.4734,-122"/>
<text text-anchor="middle" x="1659" y="-99.8" font-family="Times,serif" font-size="14.00" fill="#000000">BrowserModule</text>
</g>
<!-- BrowserModule&#45;&gt;AppModule -->
<g id="edge5" class="edge">
<title>BrowserModule&#45;&gt;AppModule</title>
<path fill="none" stroke="#000000" d="M1659,-122.0336C1659,-139.0597 1659,-162 1659,-162 1659,-162 1420.8588,-162 1420.8588,-162"/>
<polygon fill="#000000" stroke="#000000" points="1420.8588,-158.5001 1410.8588,-162 1420.8587,-165.5001 1420.8588,-158.5001"/>
</g>
<!-- FormsModule -->
<g id="node7" class="node">
<title>FormsModule</title>
<polygon fill="#8dd3c7" stroke="#000000" points="1587.8288,-122 1584.8288,-126 1563.8288,-126 1560.8288,-122 1492.1712,-122 1492.1712,-86 1587.8288,-86 1587.8288,-122"/>
<text text-anchor="middle" x="1540" y="-99.8" font-family="Times,serif" font-size="14.00" fill="#000000">FormsModule</text>
</g>
<!-- FormsModule&#45;&gt;AppModule -->
<g id="edge6" class="edge">
<title>FormsModule&#45;&gt;AppModule</title>
<path fill="none" stroke="#000000" d="M1540,-122.2396C1540,-137.5706 1540,-157 1540,-157 1540,-157 1420.8313,-157 1420.8313,-157"/>
<polygon fill="#000000" stroke="#000000" points="1420.8313,-153.5001 1410.8313,-157 1420.8313,-160.5001 1420.8313,-153.5001"/>
</g>
<!-- HttpModule -->
<g id="node8" class="node">
<title>HttpModule</title>
<polygon fill="#8dd3c7" stroke="#000000" points="1474.4387,-122 1471.4387,-126 1450.4387,-126 1447.4387,-122 1389.5613,-122 1389.5613,-86 1474.4387,-86 1474.4387,-122"/>
<text text-anchor="middle" x="1432" y="-99.8" font-family="Times,serif" font-size="14.00" fill="#000000">HttpModule</text>
</g>
<!-- HttpModule&#45;&gt;AppModule -->
<g id="edge7" class="edge">
<title>HttpModule&#45;&gt;AppModule</title>
<path fill="none" stroke="#000000" d="M1400.3047,-122.1061C1400.3047,-122.1061 1400.3047,-140.991 1400.3047,-140.991"/>
<polygon fill="#000000" stroke="#000000" points="1396.8048,-140.9909 1400.3047,-150.991 1403.8048,-140.991 1396.8048,-140.9909"/>
</g>
<!-- AppRoutingModule -->
<g id="node9" class="node">
<title>AppRoutingModule</title>
<polygon fill="#8dd3c7" stroke="#000000" points="1371.2744,-122 1368.2744,-126 1347.2744,-126 1344.2744,-122 1242.7256,-122 1242.7256,-86 1371.2744,-86 1371.2744,-122"/>
<text text-anchor="middle" x="1307" y="-99.8" font-family="Times,serif" font-size="14.00" fill="#000000">AppRoutingModule</text>
</g>
<!-- AppRoutingModule&#45;&gt;AppModule -->
<g id="edge8" class="edge">
<title>AppRoutingModule&#45;&gt;AppModule</title>
<path fill="none" stroke="#000000" d="M1349.2795,-122.1061C1349.2795,-122.1061 1349.2795,-140.991 1349.2795,-140.991"/>
<polygon fill="#000000" stroke="#000000" points="1345.7795,-140.9909 1349.2795,-150.991 1352.7795,-140.991 1345.7795,-140.9909"/>
</g>
<!-- Ng2PaginationModule -->
<g id="node10" class="node">
<title>Ng2PaginationModule</title>
<polygon fill="#8dd3c7" stroke="#000000" points="1224.5407,-122 1221.5407,-126 1200.5407,-126 1197.5407,-122 1081.4593,-122 1081.4593,-86 1224.5407,-86 1224.5407,-122"/>
<text text-anchor="middle" x="1153" y="-99.8" font-family="Times,serif" font-size="14.00" fill="#000000">Ng2PaginationModule</text>
</g>
<!-- Ng2PaginationModule&#45;&gt;AppModule -->
<g id="edge9" class="edge">
<title>Ng2PaginationModule&#45;&gt;AppModule</title>
<path fill="none" stroke="#000000" d="M1153,-122.2396C1153,-137.5706 1153,-157 1153,-157 1153,-157 1317.0969,-157 1317.0969,-157"/>
<polygon fill="#000000" stroke="#000000" points="1317.0969,-160.5001 1327.0969,-157 1317.0969,-153.5001 1317.0969,-160.5001"/>
</g>
<!-- AuthModule -->
<g id="node11" class="node">
<title>AuthModule</title>
<polygon fill="#8dd3c7" stroke="#000000" points="1062.5482,-122 1059.5482,-126 1038.5482,-126 1035.5482,-122 975.4518,-122 975.4518,-86 1062.5482,-86 1062.5482,-122"/>
<text text-anchor="middle" x="1019" y="-99.8" font-family="Times,serif" font-size="14.00" fill="#000000">AuthModule</text>
</g>
<!-- AuthModule&#45;&gt;AppModule -->
<g id="edge10" class="edge">
<title>AuthModule&#45;&gt;AppModule</title>
<path fill="none" stroke="#000000" d="M1019,-122.0336C1019,-139.0597 1019,-162 1019,-162 1019,-162 1317.1295,-162 1317.1295,-162"/>
<polygon fill="#000000" stroke="#000000" points="1317.1295,-165.5001 1327.1295,-162 1317.1294,-158.5001 1317.1295,-165.5001"/>
</g>
<!-- NewsService -->
<g id="node13" class="node">
<title>NewsService</title>
<ellipse fill="#fdb462" stroke="#000000" cx="889" cy="-104" rx="61.9538" ry="18"/>
<text text-anchor="middle" x="889" y="-99.8" font-family="Times,serif" font-size="14.00" fill="#000000">NewsService</text>
</g>
<!-- NewsService&#45;&gt;AppModule -->
<g id="edge12" class="edge">
<title>NewsService&#45;&gt;AppModule</title>
<path fill="none" stroke="#000000" d="M889,-122.2222C889,-140.8285 889,-167 889,-167 889,-167 1317.2428,-167 1317.2428,-167"/>
<polygon fill="#000000" stroke="#000000" points="1317.2429,-170.5001 1327.2428,-167 1317.2428,-163.5001 1317.2429,-170.5001"/>
</g>
<!-- HomeService -->
<g id="node14" class="node">
<title>HomeService</title>
<ellipse fill="#fdb462" stroke="#000000" cx="745" cy="-104" rx="63.6813" ry="18"/>
<text text-anchor="middle" x="745" y="-99.8" font-family="Times,serif" font-size="14.00" fill="#000000">HomeService</text>
</g>
<!-- HomeService&#45;&gt;AppModule -->
<g id="edge13" class="edge">
<title>HomeService&#45;&gt;AppModule</title>
<path fill="none" stroke="#000000" d="M745,-122.2228C745,-142.3652 745,-172 745,-172 745,-172 1317.0887,-172 1317.0887,-172"/>
<polygon fill="#000000" stroke="#000000" points="1317.0887,-175.5001 1327.0887,-172 1317.0886,-168.5001 1317.0887,-175.5001"/>
</g>
<!-- AuthGuard -->
<g id="node15" class="node">
<title>AuthGuard</title>
<ellipse fill="#fdb462" stroke="#000000" cx="609" cy="-104" rx="54.4566" ry="18"/>
<text text-anchor="middle" x="609" y="-99.8" font-family="Times,serif" font-size="14.00" fill="#000000">AuthGuard</text>
</g>
<!-- AuthGuard&#45;&gt;AppModule -->
<g id="edge14" class="edge">
<title>AuthGuard&#45;&gt;AppModule</title>
<path fill="none" stroke="#000000" d="M609,-122.0449C609,-143.6623 609,-177 609,-177 609,-177 1317.3283,-177 1317.3283,-177"/>
<polygon fill="#000000" stroke="#000000" points="1317.3284,-180.5001 1327.3283,-177 1317.3283,-173.5001 1317.3284,-180.5001"/>
</g>
<!-- { provide: LocationStrategy, useClass: HashLocationStrategy } -->
<g id="node16" class="node">
<title>{ provide: LocationStrategy, useClass: HashLocationStrategy }</title>
<ellipse fill="#fdb462" stroke="#000000" cx="280" cy="-104" rx="256.1093" ry="18"/>
<text text-anchor="middle" x="280" y="-99.8" font-family="Times,serif" font-size="14.00" fill="#000000">{ provide: LocationStrategy, useClass: HashLocationStrategy }</text>
</g>
<!-- { provide: LocationStrategy, useClass: HashLocationStrategy }&#45;&gt;AppModule -->
<g id="edge15" class="edge">
<title>{ provide: LocationStrategy, useClass: HashLocationStrategy }&#45;&gt;AppModule</title>
<path fill="none" stroke="#000000" d="M280,-122.0908C280,-145.1328 280,-182 280,-182 280,-182 1317.309,-182 1317.309,-182"/>
<polygon fill="#000000" stroke="#000000" points="1317.3091,-185.5001 1327.309,-182 1317.309,-178.5001 1317.3091,-185.5001"/>
</g>
</g>
</svg>
